solid OpenSCAD_Model
  facet normal 0 0 -1
    outer loop
      vertex -38.9182 -33.9876 -1
      vertex -38.9182 -32.0124 -1
      vertex -38.2768 -35.8557 -1
    endloop
  endfacet
  facet normal 0 0 -1
    outer loop
      vertex -38.2768 -35.8557 -1
      vertex -38.9182 -32.0124 -1
      vertex -38.2768 -30.1443 -1
    endloop
  endfacet
  facet normal 0 0 -1
    outer loop
      vertex -38.2768 -35.8557 -1
      vertex -38.2768 -30.1443 -1
      vertex -37.0637 -28.5857 -1
    endloop
  endfacet
  facet normal 0 0 -1
    outer loop
      vertex -38.2768 -35.8557 -1
      vertex -37.0637 -28.5857 -1
      vertex -35.4102 -27.5054 -1
    endloop
  endfacet
  facet normal 0 0 -1
    outer loop
      vertex -38.2768 -35.8557 -1
      vertex -35.4102 -27.5054 -1
      vertex -33.4955 -27.0205 -1
    endloop
  endfacet
  facet normal 0 0 -1
    outer loop
      vertex -38.2768 -35.8557 -1
      vertex -33.4955 -27.0205 -1
      vertex -32 -27.1444 -1
    endloop
  endfacet
  facet normal 0 0 -1
    outer loop
      vertex -32 27.1444 -1
      vertex -33.4955 27.0205 -1
      vertex -35.4102 27.5054 -1
    endloop
  endfacet
  facet normal 0 0 -1
    outer loop
      vertex -32 27.1444 -1
      vertex -35.4102 27.5054 -1
      vertex -37.0637 28.5857 -1
    endloop
  endfacet
  facet normal 0 0 -1
    outer loop
      vertex -32 27.1444 -1
      vertex -37.0637 28.5857 -1
      vertex -38.2768 30.1443 -1
    endloop
  endfacet
  facet normal 0 0 -1
    outer loop
      vertex -32 27.1444 -1
      vertex -38.2768 30.1443 -1
      vertex -38.9182 32.0124 -1
    endloop
  endfacet
  facet normal 0 0 -1
    outer loop
      vertex -32 27.1444 -1
      vertex -38.9182 32.0124 -1
      vertex -38.9182 33.9876 -1
    endloop
  endfacet
  facet normal 0 0 -1
    outer loop
      vertex -32 27.1444 -1
      vertex -38.9182 33.9876 -1
      vertex -38.2768 35.8557 -1
    endloop
  endfacet
  facet normal 0 0 -1
    outer loop
      vertex -32 27.1444 -1
      vertex -38.2768 35.8557 -1
      vertex -37.0637 37.4143 -1
    endloop
  endfacet
  facet normal 0 0 -1
    outer loop
      vertex -32 27.1444 -1
      vertex -37.0637 37.4143 -1
      vertex -35.4102 38.4946 -1
    endloop
  endfacet
  facet normal 0 0 -1
    outer loop
      vertex -32 27.1444 -1
      vertex -35.4102 38.4946 -1
      vertex -33.4955 38.9795 -1
    endloop
  endfacet
  facet normal 0 0 -1
    outer loop
      vertex -32 27.1444 -1
      vertex -33.4955 38.9795 -1
      vertex -31.5271 38.8164 -1
    endloop
  endfacet
  facet normal 0 0 -1
    outer loop
      vertex -32 27.1444 -1
      vertex -31.5271 38.8164 -1
      vertex -32 -27.1444 -1
    endloop
  endfacet
  facet normal 0 0 -1
    outer loop
      vertex -32 -27.1444 -1
      vertex -31.5271 38.8164 -1
      vertex -29.7183 38.023 -1
    endloop
  endfacet
  facet normal 0 0 -1
    outer loop
      vertex -32 -27.1444 -1
      vertex -29.7183 38.023 -1
      vertex -28.2652 36.6853 -1
    endloop
  endfacet
  facet normal 0 0 -1
    outer loop
      vertex -32 -27.1444 -1
      vertex -28.2652 36.6853 -1
      vertex -27.3251 34.9482 -1
    endloop
  endfacet
  facet normal 0 0 -1
    outer loop
      vertex -27.1669 32 -1
      vertex -27.3251 34.9482 -1
      vertex -27 33 -1
    endloop
  endfacet
  facet normal 0 0 -1
    outer loop
      vertex -32 -27.1444 -1
      vertex -27.3251 34.9482 -1
      vertex -27.1669 32 -1
    endloop
  endfacet
  facet normal 0 0 -1
    outer loop
      vertex -27.1669 -32 -1
      vertex 36.2817 -27.977 -1
      vertex 37.7348 -29.3147 -1
    endloop
  endfacet
  facet normal 0 0 -1
    outer loop
      vertex 34.4729 27.1836 -1
      vertex 37.7348 29.3147 -1
      vertex 36.2817 27.977 -1
    endloop
  endfacet
  facet normal 0 0 -1
    outer loop
      vertex -32 -27.1444 -1
      vertex 27.0861 32 -1
      vertex -38.2768 -35.8557 -1
    endloop
  endfacet
  facet normal 0 0 -1
    outer loop
      vertex 27.0861 32 -1
      vertex 27.0818 32.0124 -1
      vertex 27.0818 33.9876 -1
    endloop
  endfacet
  facet normal 0 0 -1
    outer loop
      vertex 27.0818 33.9876 -1
      vertex 27.7232 35.8557 -1
      vertex 27.0861 32 -1
    endloop
  endfacet
  facet normal 0 0 -1
    outer loop
      vertex 27.0861 32 -1
      vertex 27.7232 35.8557 -1
      vertex 28.9363 37.4143 -1
    endloop
  endfacet
  facet normal 0 0 -1
    outer loop
      vertex 27.0861 32 -1
      vertex 28.9363 37.4143 -1
      vertex 30.5898 38.4946 -1
    endloop
  endfacet
  facet normal 0 0 -1
    outer loop
      vertex 27.0861 32 -1
      vertex 30.5898 38.4946 -1
      vertex 32.5045 38.9795 -1
    endloop
  endfacet
  facet normal 0 0 -1
    outer loop
      vertex 27.0861 32 -1
      vertex 32.5045 38.9795 -1
      vertex 34.4729 38.8164 -1
    endloop
  endfacet
  facet normal 0 0 -1
    outer loop
      vertex 27.0861 32 -1
      vertex 34.4729 38.8164 -1
      vertex -38.2768 -35.8557 -1
    endloop
  endfacet
  facet normal 0 0 -1
    outer loop
      vertex -38.2768 -35.8557 -1
      vertex 34.4729 38.8164 -1
      vertex 36.2817 38.023 -1
    endloop
  endfacet
  facet normal 0 0 -1
    outer loop
      vertex -38.2768 -35.8557 -1
      vertex 36.2817 38.023 -1
      vertex 37.7348 36.6853 -1
    endloop
  endfacet
  facet normal 0 0 -1
    outer loop
      vertex -38.2768 -35.8557 -1
      vertex 37.7348 36.6853 -1
      vertex 38.6749 34.9482 -1
    endloop
  endfacet
  facet normal 0 0 -1
    outer loop
      vertex 32 27.1483 -1
      vertex 38.6749 34.9482 -1
      vertex 39 33 -1
    endloop
  endfacet
  facet normal 0 0 -1
    outer loop
      vertex 32.5045 27.0205 -1
      vertex 39 33 -1
      vertex 38.6749 31.0518 -1
    endloop
  endfacet
  facet normal 0 0 -1
    outer loop
      vertex 34.4729 27.1836 -1
      vertex 38.6749 31.0518 -1
      vertex 37.7348 29.3147 -1
    endloop
  endfacet
  facet normal 0 0 -1
    outer loop
      vertex -27.1669 -32 -1
      vertex 37.7348 -29.3147 -1
      vertex 38.6749 -31.0518 -1
    endloop
  endfacet
  facet normal 0 0 -1
    outer loop
      vertex -27.1669 -32 -1
      vertex 38.6749 -31.0518 -1
      vertex 27.0861 -32 -1
    endloop
  endfacet
  facet normal 0 0 -1
    outer loop
      vertex 32.5045 27.0205 -1
      vertex 38.6749 31.0518 -1
      vertex 34.4729 27.1836 -1
    endloop
  endfacet
  facet normal 0 0 -1
    outer loop
      vertex 32 -27.1483 -1
      vertex -27.1669 -32 -1
      vertex 32 27.1483 -1
    endloop
  endfacet
  facet normal 0 0 -1
    outer loop
      vertex 32 27.1483 -1
      vertex 39 33 -1
      vertex 32.5045 27.0205 -1
    endloop
  endfacet
  facet normal 0 0 -1
    outer loop
      vertex -38.2768 -35.8557 -1
      vertex 38.6749 34.9482 -1
      vertex 32 27.1483 -1
    endloop
  endfacet
  facet normal 0 0 -1
    outer loop
      vertex -27.1669 -32 -1
      vertex -38.2768 -35.8557 -1
      vertex 32 27.1483 -1
    endloop
  endfacet
  facet normal 0 0 -1
    outer loop
      vertex 30.5898 -38.4946 -1
      vertex 34.4729 -38.8164 -1
      vertex 32.5045 -38.9795 -1
    endloop
  endfacet
  facet normal 0 0 -1
    outer loop
      vertex 32 -27.1483 -1
      vertex 32.5045 -27.0205 -1
      vertex 34.4729 -27.1836 -1
    endloop
  endfacet
  facet normal 0 0 -1
    outer loop
      vertex 27.0818 -32.0124 -1
      vertex 38.6749 -31.0518 -1
      vertex 39 -33 -1
    endloop
  endfacet
  facet normal 0 0 -1
    outer loop
      vertex 27.0818 -33.9876 -1
      vertex 39 -33 -1
      vertex 38.6749 -34.9482 -1
    endloop
  endfacet
  facet normal 0 0 -1
    outer loop
      vertex 27.7232 -35.8557 -1
      vertex 38.6749 -34.9482 -1
      vertex 37.7348 -36.6853 -1
    endloop
  endfacet
  facet normal 0 0 -1
    outer loop
      vertex 28.9363 -37.4143 -1
      vertex 37.7348 -36.6853 -1
      vertex 36.2817 -38.023 -1
    endloop
  endfacet
  facet normal 0 0 -1
    outer loop
      vertex 30.5898 -38.4946 -1
      vertex 36.2817 -38.023 -1
      vertex 34.4729 -38.8164 -1
    endloop
  endfacet
  facet normal 0 0 -1
    outer loop
      vertex 28.9363 -37.4143 -1
      vertex 36.2817 -38.023 -1
      vertex 30.5898 -38.4946 -1
    endloop
  endfacet
  facet normal 0 0 -1
    outer loop
      vertex 27.7232 -35.8557 -1
      vertex 37.7348 -36.6853 -1
      vertex 28.9363 -37.4143 -1
    endloop
  endfacet
  facet normal 0 0 -1
    outer loop
      vertex 27.0818 -33.9876 -1
      vertex 38.6749 -34.9482 -1
      vertex 27.7232 -35.8557 -1
    endloop
  endfacet
  facet normal 0 0 -1
    outer loop
      vertex -27.1669 -32 -1
      vertex 34.4729 -27.1836 -1
      vertex 36.2817 -27.977 -1
    endloop
  endfacet
  facet normal 0 0 -1
    outer loop
      vertex 27.0818 -32.0124 -1
      vertex 39 -33 -1
      vertex 27.0818 -33.9876 -1
    endloop
  endfacet
  facet normal 0 0 -1
    outer loop
      vertex 27.0861 -32 -1
      vertex 38.6749 -31.0518 -1
      vertex 27.0818 -32.0124 -1
    endloop
  endfacet
  facet normal 0 0 -1
    outer loop
      vertex -27.1669 -32 -1
      vertex 32 -27.1483 -1
      vertex 34.4729 -27.1836 -1
    endloop
  endfacet
  facet normal 0 0 -1
    outer loop
      vertex -28.2652 -36.6853 -1
      vertex -38.2768 -35.8557 -1
      vertex -27.3251 -34.9482 -1
    endloop
  endfacet
  facet normal 0 0 -1
    outer loop
      vertex -38.2768 -35.8557 -1
      vertex -27.1669 -32 -1
      vertex -27 -33 -1
    endloop
  endfacet
  facet normal 0 0 -1
    outer loop
      vertex -38.2768 -35.8557 -1
      vertex -28.2652 -36.6853 -1
      vertex -29.7183 -38.023 -1
    endloop
  endfacet
  facet normal 0 0 -1
    outer loop
      vertex -38.2768 -35.8557 -1
      vertex -29.7183 -38.023 -1
      vertex -31.5271 -38.8164 -1
    endloop
  endfacet
  facet normal 0 0 -1
    outer loop
      vertex -38.2768 -35.8557 -1
      vertex -31.5271 -38.8164 -1
      vertex -33.4955 -38.9795 -1
    endloop
  endfacet
  facet normal 0 0 -1
    outer loop
      vertex -38.2768 -35.8557 -1
      vertex -33.4955 -38.9795 -1
      vertex -35.4102 -38.4946 -1
    endloop
  endfacet
  facet normal 0 0 -1
    outer loop
      vertex -38.2768 -35.8557 -1
      vertex -35.4102 -38.4946 -1
      vertex -37.0637 -37.4143 -1
    endloop
  endfacet
  facet normal 0 0 -1
    outer loop
      vertex 27.0861 32 -1
      vertex -32 -27.1444 -1
      vertex -27.1669 32 -1
    endloop
  endfacet
  facet normal 0 0 -1
    outer loop
      vertex -27.3251 -34.9482 -1
      vertex -38.2768 -35.8557 -1
      vertex -27 -33 -1
    endloop
  endfacet
  facet normal -1 0 0
    outer loop
      vertex -38.9182 -33.9876 -1
      vertex -38.9182 -33.9876 0
      vertex -38.9182 -32.0124 -1
    endloop
  endfacet
  facet normal -1 0 0
    outer loop
      vertex -38.9182 -32.0124 -1
      vertex -38.9182 -33.9876 0
      vertex -38.9182 -32.0124 0
    endloop
  endfacet
  facet normal -0.945817 -0.324699 0
    outer loop
      vertex -38.9182 -33.9876 -1
      vertex -38.2768 -35.8557 -1
      vertex -38.9182 -33.9876 0
    endloop
  endfacet
  facet normal -0.945817 -0.324699 0
    outer loop
      vertex -38.9182 -33.9876 0
      vertex -38.2768 -35.8557 -1
      vertex -38.2768 -35.8557 0
    endloop
  endfacet
  facet normal -0.78914 -0.614213 0
    outer loop
      vertex -38.2768 -35.8557 -1
      vertex -37.0637 -37.4143 -1
      vertex -38.2768 -35.8557 0
    endloop
  endfacet
  facet normal -0.78914 -0.614213 0
    outer loop
      vertex -38.2768 -35.8557 0
      vertex -37.0637 -37.4143 -1
      vertex -37.0637 -37.4143 0
    endloop
  endfacet
  facet normal -0.546949 -0.837166 0
    outer loop
      vertex -37.0637 -37.4143 0
      vertex -37.0637 -37.4143 -1
      vertex -35.4102 -38.4946 -1
    endloop
  endfacet
  facet normal -0.546949 -0.837166 0
    outer loop
      vertex -35.4102 -38.4946 0
      vertex -37.0637 -37.4143 0
      vertex -35.4102 -38.4946 -1
    endloop
  endfacet
  facet normal -0.245485 -0.9694 0
    outer loop
      vertex -35.4102 -38.4946 0
      vertex -35.4102 -38.4946 -1
      vertex -33.4955 -38.9795 -1
    endloop
  endfacet
  facet normal -0.245485 -0.9694 0
    outer loop
      vertex -33.4955 -38.9795 0
      vertex -35.4102 -38.4946 0
      vertex -33.4955 -38.9795 -1
    endloop
  endfacet
  facet normal 0.0825792 -0.996585 0
    outer loop
      vertex -33.4955 -38.9795 0
      vertex -33.4955 -38.9795 -1
      vertex -31.5271 -38.8164 -1
    endloop
  endfacet
  facet normal 0.0825792 -0.996585 0
    outer loop
      vertex -31.5271 -38.8164 0
      vertex -33.4955 -38.9795 0
      vertex -31.5271 -38.8164 -1
    endloop
  endfacet
  facet normal 0.401696 -0.915773 0
    outer loop
      vertex -31.5271 -38.8164 0
      vertex -31.5271 -38.8164 -1
      vertex -29.7183 -38.023 -1
    endloop
  endfacet
  facet normal 0.401696 -0.915773 0
    outer loop
      vertex -29.7183 -38.023 0
      vertex -31.5271 -38.8164 0
      vertex -29.7183 -38.023 -1
    endloop
  endfacet
  facet normal 0.677282 -0.735724 0
    outer loop
      vertex -29.7183 -38.023 0
      vertex -29.7183 -38.023 -1
      vertex -28.2652 -36.6853 -1
    endloop
  endfacet
  facet normal 0.677282 -0.735724 0
    outer loop
      vertex -28.2652 -36.6853 0
      vertex -29.7183 -38.023 0
      vertex -28.2652 -36.6853 -1
    endloop
  endfacet
  facet normal 0.879474 -0.475947 0
    outer loop
      vertex -28.2652 -36.6853 0
      vertex -28.2652 -36.6853 -1
      vertex -27.3251 -34.9482 -1
    endloop
  endfacet
  facet normal 0.879474 -0.475947 0
    outer loop
      vertex -27.3251 -34.9482 0
      vertex -28.2652 -36.6853 0
      vertex -27.3251 -34.9482 -1
    endloop
  endfacet
  facet normal 0.986361 -0.164595 0
    outer loop
      vertex -27.3251 -34.9482 0
      vertex -27.3251 -34.9482 -1
      vertex -27 -33 -1
    endloop
  endfacet
  facet normal 0.986361 -0.164595 0
    outer loop
      vertex -27 -33 0
      vertex -27.3251 -34.9482 0
      vertex -27 -33 -1
    endloop
  endfacet
  facet normal 0.986361 0.164595 0
    outer loop
      vertex -27 -33 -1
      vertex -27.1669 -32 -1
      vertex -27.1669 -32 0
    endloop
  endfacet
  facet normal 0.986361 0.164595 0
    outer loop
      vertex -27 -33 0
      vertex -27 -33 -1
      vertex -27.1669 -32 0
    endloop
  endfacet
  facet normal 0 -1 0
    outer loop
      vertex 27.0861 -32 0
      vertex 32 -32 0
      vertex -32 -32 1
    endloop
  endfacet
  facet normal 0 -1 0
    outer loop
      vertex -32 -32 1
      vertex -32 -32 0
      vertex -27.1669 -32 0
    endloop
  endfacet
  facet normal 0 -1 0
    outer loop
      vertex 27.0861 -32 -1
      vertex -32 -32 1
      vertex -27.1669 -32 0
    endloop
  endfacet
  facet normal 0 -1 0
    outer loop
      vertex -27.1669 -32 -1
      vertex 27.0861 -32 -1
      vertex -27.1669 -32 0
    endloop
  endfacet
  facet normal 0 -1 0
    outer loop
      vertex 27.0861 -32 -1
      vertex 27.0861 -32 0
      vertex -32 -32 1
    endloop
  endfacet
  facet normal 0 -1 0
    outer loop
      vertex 32 -32 0
      vertex 32 -32 1
      vertex -32 -32 1
    endloop
  endfacet
  facet normal -0.945817 0.324699 0
    outer loop
      vertex 27.0818 -32.0124 -1
      vertex 27.0818 -32.0124 0
      vertex 27.0861 -32 -1
    endloop
  endfacet
  facet normal -0.945817 0.324699 0
    outer loop
      vertex 27.0861 -32 -1
      vertex 27.0818 -32.0124 0
      vertex 27.0861 -32 0
    endloop
  endfacet
  facet normal -1 0 0
    outer loop
      vertex 27.0818 -33.9876 -1
      vertex 27.0818 -33.9876 0
      vertex 27.0818 -32.0124 -1
    endloop
  endfacet
  facet normal -1 0 0
    outer loop
      vertex 27.0818 -32.0124 -1
      vertex 27.0818 -33.9876 0
      vertex 27.0818 -32.0124 0
    endloop
  endfacet
  facet normal -0.945817 -0.324699 0
    outer loop
      vertex 27.0818 -33.9876 -1
      vertex 27.7232 -35.8557 -1
      vertex 27.0818 -33.9876 0
    endloop
  endfacet
  facet normal -0.945817 -0.324699 0
    outer loop
      vertex 27.0818 -33.9876 0
      vertex 27.7232 -35.8557 -1
      vertex 27.7232 -35.8557 0
    endloop
  endfacet
  facet normal -0.78914 -0.614213 0
    outer loop
      vertex 27.7232 -35.8557 -1
      vertex 28.9363 -37.4143 -1
      vertex 27.7232 -35.8557 0
    endloop
  endfacet
  facet normal -0.78914 -0.614213 0
    outer loop
      vertex 27.7232 -35.8557 0
      vertex 28.9363 -37.4143 -1
      vertex 28.9363 -37.4143 0
    endloop
  endfacet
  facet normal -0.546949 -0.837166 0
    outer loop
      vertex 28.9363 -37.4143 0
      vertex 28.9363 -37.4143 -1
      vertex 30.5898 -38.4946 -1
    endloop
  endfacet
  facet normal -0.546949 -0.837166 0
    outer loop
      vertex 30.5898 -38.4946 0
      vertex 28.9363 -37.4143 0
      vertex 30.5898 -38.4946 -1
    endloop
  endfacet
  facet normal -0.245485 -0.9694 0
    outer loop
      vertex 30.5898 -38.4946 0
      vertex 30.5898 -38.4946 -1
      vertex 32.5045 -38.9795 -1
    endloop
  endfacet
  facet normal -0.245485 -0.9694 0
    outer loop
      vertex 32.5045 -38.9795 0
      vertex 30.5898 -38.4946 0
      vertex 32.5045 -38.9795 -1
    endloop
  endfacet
  facet normal 0.0825792 -0.996585 0
    outer loop
      vertex 32.5045 -38.9795 0
      vertex 32.5045 -38.9795 -1
      vertex 34.4729 -38.8164 -1
    endloop
  endfacet
  facet normal 0.0825792 -0.996585 0
    outer loop
      vertex 34.4729 -38.8164 0
      vertex 32.5045 -38.9795 0
      vertex 34.4729 -38.8164 -1
    endloop
  endfacet
  facet normal 0.401696 -0.915773 0
    outer loop
      vertex 34.4729 -38.8164 0
      vertex 34.4729 -38.8164 -1
      vertex 36.2817 -38.023 -1
    endloop
  endfacet
  facet normal 0.401696 -0.915773 0
    outer loop
      vertex 36.2817 -38.023 0
      vertex 34.4729 -38.8164 0
      vertex 36.2817 -38.023 -1
    endloop
  endfacet
  facet normal 0.677282 -0.735724 0
    outer loop
      vertex 36.2817 -38.023 0
      vertex 36.2817 -38.023 -1
      vertex 37.7348 -36.6853 -1
    endloop
  endfacet
  facet normal 0.677282 -0.735724 0
    outer loop
      vertex 37.7348 -36.6853 0
      vertex 36.2817 -38.023 0
      vertex 37.7348 -36.6853 -1
    endloop
  endfacet
  facet normal 0.879474 -0.475947 0
    outer loop
      vertex 37.7348 -36.6853 0
      vertex 37.7348 -36.6853 -1
      vertex 38.6749 -34.9482 -1
    endloop
  endfacet
  facet normal 0.879474 -0.475947 0
    outer loop
      vertex 38.6749 -34.9482 0
      vertex 37.7348 -36.6853 0
      vertex 38.6749 -34.9482 -1
    endloop
  endfacet
  facet normal 0.986361 -0.164595 0
    outer loop
      vertex 38.6749 -34.9482 0
      vertex 38.6749 -34.9482 -1
      vertex 39 -33 -1
    endloop
  endfacet
  facet normal 0.986361 -0.164595 0
    outer loop
      vertex 39 -33 0
      vertex 38.6749 -34.9482 0
      vertex 39 -33 -1
    endloop
  endfacet
  facet normal 0.986361 0.164595 0
    outer loop
      vertex 39 -33 -1
      vertex 38.6749 -31.0518 -1
      vertex 38.6749 -31.0518 0
    endloop
  endfacet
  facet normal 0.986361 0.164595 0
    outer loop
      vertex 39 -33 0
      vertex 39 -33 -1
      vertex 38.6749 -31.0518 0
    endloop
  endfacet
  facet normal 0.879474 0.475947 0
    outer loop
      vertex 38.6749 -31.0518 -1
      vertex 37.7348 -29.3147 -1
      vertex 37.7348 -29.3147 0
    endloop
  endfacet
  facet normal 0.879474 0.475947 0
    outer loop
      vertex 38.6749 -31.0518 0
      vertex 38.6749 -31.0518 -1
      vertex 37.7348 -29.3147 0
    endloop
  endfacet
  facet normal 0.677282 0.735724 0
    outer loop
      vertex 36.2817 -27.977 -1
      vertex 36.2817 -27.977 0
      vertex 37.7348 -29.3147 -1
    endloop
  endfacet
  facet normal 0.677282 0.735724 0
    outer loop
      vertex 37.7348 -29.3147 -1
      vertex 36.2817 -27.977 0
      vertex 37.7348 -29.3147 0
    endloop
  endfacet
  facet normal 0.401696 0.915773 0
    outer loop
      vertex 34.4729 -27.1836 -1
      vertex 34.4729 -27.1836 0
      vertex 36.2817 -27.977 -1
    endloop
  endfacet
  facet normal 0.401696 0.915773 0
    outer loop
      vertex 36.2817 -27.977 -1
      vertex 34.4729 -27.1836 0
      vertex 36.2817 -27.977 0
    endloop
  endfacet
  facet normal 0.0825792 0.996585 0
    outer loop
      vertex 32.5045 -27.0205 -1
      vertex 32.5045 -27.0205 0
      vertex 34.4729 -27.1836 -1
    endloop
  endfacet
  facet normal 0.0825792 0.996585 0
    outer loop
      vertex 34.4729 -27.1836 -1
      vertex 32.5045 -27.0205 0
      vertex 34.4729 -27.1836 0
    endloop
  endfacet
  facet normal -0.245485 0.9694 0
    outer loop
      vertex 32 -27.1483 -1
      vertex 32 -27.1483 0
      vertex 32.5045 -27.0205 -1
    endloop
  endfacet
  facet normal -0.245485 0.9694 0
    outer loop
      vertex 32.5045 -27.0205 -1
      vertex 32 -27.1483 0
      vertex 32.5045 -27.0205 0
    endloop
  endfacet
  facet normal 1 0 0
    outer loop
      vertex 32 27.1483 0
      vertex 32 32 0
      vertex 32 -32 1
    endloop
  endfacet
  facet normal 1 0 0
    outer loop
      vertex 32 -32 1
      vertex 32 -32 0
      vertex 32 -27.1483 0
    endloop
  endfacet
  facet normal 1 0 0
    outer loop
      vertex 32 27.1483 -1
      vertex 32 -32 1
      vertex 32 -27.1483 0
    endloop
  endfacet
  facet normal 1 0 0
    outer loop
      vertex 32 -27.1483 -1
      vertex 32 27.1483 -1
      vertex 32 -27.1483 0
    endloop
  endfacet
  facet normal 1 0 0
    outer loop
      vertex 32 27.1483 -1
      vertex 32 27.1483 0
      vertex 32 -32 1
    endloop
  endfacet
  facet normal 1 0 0
    outer loop
      vertex 32 32 0
      vertex 32 32 1
      vertex 32 -32 1
    endloop
  endfacet
  facet normal -0.245485 -0.9694 0
    outer loop
      vertex 32 27.1483 0
      vertex 32 27.1483 -1
      vertex 32.5045 27.0205 -1
    endloop
  endfacet
  facet normal -0.245485 -0.9694 0
    outer loop
      vertex 32.5045 27.0205 0
      vertex 32 27.1483 0
      vertex 32.5045 27.0205 -1
    endloop
  endfacet
  facet normal 0.0825792 -0.996585 0
    outer loop
      vertex 32.5045 27.0205 0
      vertex 32.5045 27.0205 -1
      vertex 34.4729 27.1836 -1
    endloop
  endfacet
  facet normal 0.0825792 -0.996585 0
    outer loop
      vertex 34.4729 27.1836 0
      vertex 32.5045 27.0205 0
      vertex 34.4729 27.1836 -1
    endloop
  endfacet
  facet normal 0.401696 -0.915773 0
    outer loop
      vertex 34.4729 27.1836 0
      vertex 34.4729 27.1836 -1
      vertex 36.2817 27.977 -1
    endloop
  endfacet
  facet normal 0.401696 -0.915773 0
    outer loop
      vertex 36.2817 27.977 0
      vertex 34.4729 27.1836 0
      vertex 36.2817 27.977 -1
    endloop
  endfacet
  facet normal 0.677282 -0.735724 0
    outer loop
      vertex 36.2817 27.977 0
      vertex 36.2817 27.977 -1
      vertex 37.7348 29.3147 -1
    endloop
  endfacet
  facet normal 0.677282 -0.735724 0
    outer loop
      vertex 37.7348 29.3147 0
      vertex 36.2817 27.977 0
      vertex 37.7348 29.3147 -1
    endloop
  endfacet
  facet normal 0.879474 -0.475947 0
    outer loop
      vertex 37.7348 29.3147 0
      vertex 37.7348 29.3147 -1
      vertex 38.6749 31.0518 -1
    endloop
  endfacet
  facet normal 0.879474 -0.475947 0
    outer loop
      vertex 38.6749 31.0518 0
      vertex 37.7348 29.3147 0
      vertex 38.6749 31.0518 -1
    endloop
  endfacet
  facet normal 0.986361 -0.164595 0
    outer loop
      vertex 38.6749 31.0518 0
      vertex 38.6749 31.0518 -1
      vertex 39 33 -1
    endloop
  endfacet
  facet normal 0.986361 -0.164595 0
    outer loop
      vertex 39 33 0
      vertex 38.6749 31.0518 0
      vertex 39 33 -1
    endloop
  endfacet
  facet normal 0.986361 0.164595 0
    outer loop
      vertex 39 33 -1
      vertex 38.6749 34.9482 -1
      vertex 38.6749 34.9482 0
    endloop
  endfacet
  facet normal 0.986361 0.164595 0
    outer loop
      vertex 39 33 0
      vertex 39 33 -1
      vertex 38.6749 34.9482 0
    endloop
  endfacet
  facet normal 0.879474 0.475947 0
    outer loop
      vertex 38.6749 34.9482 -1
      vertex 37.7348 36.6853 -1
      vertex 37.7348 36.6853 0
    endloop
  endfacet
  facet normal 0.879474 0.475947 0
    outer loop
      vertex 38.6749 34.9482 0
      vertex 38.6749 34.9482 -1
      vertex 37.7348 36.6853 0
    endloop
  endfacet
  facet normal 0.677282 0.735724 0
    outer loop
      vertex 36.2817 38.023 -1
      vertex 36.2817 38.023 0
      vertex 37.7348 36.6853 -1
    endloop
  endfacet
  facet normal 0.677282 0.735724 0
    outer loop
      vertex 37.7348 36.6853 -1
      vertex 36.2817 38.023 0
      vertex 37.7348 36.6853 0
    endloop
  endfacet
  facet normal 0.401696 0.915773 0
    outer loop
      vertex 34.4729 38.8164 -1
      vertex 34.4729 38.8164 0
      vertex 36.2817 38.023 -1
    endloop
  endfacet
  facet normal 0.401696 0.915773 0
    outer loop
      vertex 36.2817 38.023 -1
      vertex 34.4729 38.8164 0
      vertex 36.2817 38.023 0
    endloop
  endfacet
  facet normal 0.0825792 0.996585 0
    outer loop
      vertex 32.5045 38.9795 -1
      vertex 32.5045 38.9795 0
      vertex 34.4729 38.8164 -1
    endloop
  endfacet
  facet normal 0.0825792 0.996585 0
    outer loop
      vertex 34.4729 38.8164 -1
      vertex 32.5045 38.9795 0
      vertex 34.4729 38.8164 0
    endloop
  endfacet
  facet normal -0.245485 0.9694 0
    outer loop
      vertex 30.5898 38.4946 -1
      vertex 30.5898 38.4946 0
      vertex 32.5045 38.9795 -1
    endloop
  endfacet
  facet normal -0.245485 0.9694 0
    outer loop
      vertex 32.5045 38.9795 -1
      vertex 30.5898 38.4946 0
      vertex 32.5045 38.9795 0
    endloop
  endfacet
  facet normal -0.546949 0.837166 0
    outer loop
      vertex 28.9363 37.4143 -1
      vertex 28.9363 37.4143 0
      vertex 30.5898 38.4946 -1
    endloop
  endfacet
  facet normal -0.546949 0.837166 0
    outer loop
      vertex 30.5898 38.4946 -1
      vertex 28.9363 37.4143 0
      vertex 30.5898 38.4946 0
    endloop
  endfacet
  facet normal -0.78914 0.614213 0
    outer loop
      vertex 27.7232 35.8557 -1
      vertex 27.7232 35.8557 0
      vertex 28.9363 37.4143 -1
    endloop
  endfacet
  facet normal -0.78914 0.614213 0
    outer loop
      vertex 28.9363 37.4143 -1
      vertex 27.7232 35.8557 0
      vertex 28.9363 37.4143 0
    endloop
  endfacet
  facet normal -0.945817 0.324699 0
    outer loop
      vertex 27.0818 33.9876 -1
      vertex 27.0818 33.9876 0
      vertex 27.7232 35.8557 -1
    endloop
  endfacet
  facet normal -0.945817 0.324699 0
    outer loop
      vertex 27.7232 35.8557 -1
      vertex 27.0818 33.9876 0
      vertex 27.7232 35.8557 0
    endloop
  endfacet
  facet normal -1 0 0
    outer loop
      vertex 27.0818 32.0124 -1
      vertex 27.0818 32.0124 0
      vertex 27.0818 33.9876 -1
    endloop
  endfacet
  facet normal -1 0 0
    outer loop
      vertex 27.0818 33.9876 -1
      vertex 27.0818 32.0124 0
      vertex 27.0818 33.9876 0
    endloop
  endfacet
  facet normal -0.945817 -0.324699 0
    outer loop
      vertex 27.0818 32.0124 -1
      vertex 27.0861 32 -1
      vertex 27.0818 32.0124 0
    endloop
  endfacet
  facet normal -0.945817 -0.324699 0
    outer loop
      vertex 27.0818 32.0124 0
      vertex 27.0861 32 -1
      vertex 27.0861 32 0
    endloop
  endfacet
  facet normal 0 1 0
    outer loop
      vertex -32 32 0
      vertex -32 32 1
      vertex -27.1669 32 0
    endloop
  endfacet
  facet normal 0 1 0
    outer loop
      vertex -27.1669 32 0
      vertex -32 32 1
      vertex 32 32 1
    endloop
  endfacet
  facet normal 0 1 0
    outer loop
      vertex 27.0861 32 0
      vertex 32 32 1
      vertex 32 32 0
    endloop
  endfacet
  facet normal 0 1 0
    outer loop
      vertex -27.1669 32 0
      vertex 32 32 1
      vertex 27.0861 32 0
    endloop
  endfacet
  facet normal 0 1 0
    outer loop
      vertex 27.0861 32 0
      vertex 27.0861 32 -1
      vertex -27.1669 32 0
    endloop
  endfacet
  facet normal 0 1 0
    outer loop
      vertex -27.1669 32 0
      vertex 27.0861 32 -1
      vertex -27.1669 32 -1
    endloop
  endfacet
  facet normal 0.986361 -0.164595 0
    outer loop
      vertex -27.1669 32 0
      vertex -27.1669 32 -1
      vertex -27 33 -1
    endloop
  endfacet
  facet normal 0.986361 -0.164595 0
    outer loop
      vertex -27 33 0
      vertex -27.1669 32 0
      vertex -27 33 -1
    endloop
  endfacet
  facet normal 0.986361 0.164595 0
    outer loop
      vertex -27 33 -1
      vertex -27.3251 34.9482 -1
      vertex -27.3251 34.9482 0
    endloop
  endfacet
  facet normal 0.986361 0.164595 0
    outer loop
      vertex -27 33 0
      vertex -27 33 -1
      vertex -27.3251 34.9482 0
    endloop
  endfacet
  facet normal 0.879474 0.475947 0
    outer loop
      vertex -27.3251 34.9482 -1
      vertex -28.2652 36.6853 -1
      vertex -28.2652 36.6853 0
    endloop
  endfacet
  facet normal 0.879474 0.475947 0
    outer loop
      vertex -27.3251 34.9482 0
      vertex -27.3251 34.9482 -1
      vertex -28.2652 36.6853 0
    endloop
  endfacet
  facet normal 0.677282 0.735724 0
    outer loop
      vertex -29.7183 38.023 -1
      vertex -29.7183 38.023 0
      vertex -28.2652 36.6853 -1
    endloop
  endfacet
  facet normal 0.677282 0.735724 0
    outer loop
      vertex -28.2652 36.6853 -1
      vertex -29.7183 38.023 0
      vertex -28.2652 36.6853 0
    endloop
  endfacet
  facet normal 0.401696 0.915773 0
    outer loop
      vertex -31.5271 38.8164 -1
      vertex -31.5271 38.8164 0
      vertex -29.7183 38.023 -1
    endloop
  endfacet
  facet normal 0.401696 0.915773 0
    outer loop
      vertex -29.7183 38.023 -1
      vertex -31.5271 38.8164 0
      vertex -29.7183 38.023 0
    endloop
  endfacet
  facet normal 0.0825792 0.996585 0
    outer loop
      vertex -33.4955 38.9795 -1
      vertex -33.4955 38.9795 0
      vertex -31.5271 38.8164 -1
    endloop
  endfacet
  facet normal 0.0825792 0.996585 0
    outer loop
      vertex -31.5271 38.8164 -1
      vertex -33.4955 38.9795 0
      vertex -31.5271 38.8164 0
    endloop
  endfacet
  facet normal -0.245485 0.9694 0
    outer loop
      vertex -35.4102 38.4946 -1
      vertex -35.4102 38.4946 0
      vertex -33.4955 38.9795 -1
    endloop
  endfacet
  facet normal -0.245485 0.9694 0
    outer loop
      vertex -33.4955 38.9795 -1
      vertex -35.4102 38.4946 0
      vertex -33.4955 38.9795 0
    endloop
  endfacet
  facet normal -0.546949 0.837166 0
    outer loop
      vertex -37.0637 37.4143 -1
      vertex -37.0637 37.4143 0
      vertex -35.4102 38.4946 -1
    endloop
  endfacet
  facet normal -0.546949 0.837166 0
    outer loop
      vertex -35.4102 38.4946 -1
      vertex -37.0637 37.4143 0
      vertex -35.4102 38.4946 0
    endloop
  endfacet
  facet normal -0.78914 0.614213 0
    outer loop
      vertex -38.2768 35.8557 -1
      vertex -38.2768 35.8557 0
      vertex -37.0637 37.4143 -1
    endloop
  endfacet
  facet normal -0.78914 0.614213 0
    outer loop
      vertex -37.0637 37.4143 -1
      vertex -38.2768 35.8557 0
      vertex -37.0637 37.4143 0
    endloop
  endfacet
  facet normal -0.945817 0.324699 0
    outer loop
      vertex -38.9182 33.9876 -1
      vertex -38.9182 33.9876 0
      vertex -38.2768 35.8557 -1
    endloop
  endfacet
  facet normal -0.945817 0.324699 0
    outer loop
      vertex -38.2768 35.8557 -1
      vertex -38.9182 33.9876 0
      vertex -38.2768 35.8557 0
    endloop
  endfacet
  facet normal -1 0 0
    outer loop
      vertex -38.9182 32.0124 -1
      vertex -38.9182 32.0124 0
      vertex -38.9182 33.9876 -1
    endloop
  endfacet
  facet normal -1 0 0
    outer loop
      vertex -38.9182 33.9876 -1
      vertex -38.9182 32.0124 0
      vertex -38.9182 33.9876 0
    endloop
  endfacet
  facet normal -0.945817 -0.324699 0
    outer loop
      vertex -38.9182 32.0124 -1
      vertex -38.2768 30.1443 -1
      vertex -38.9182 32.0124 0
    endloop
  endfacet
  facet normal -0.945817 -0.324699 0
    outer loop
      vertex -38.9182 32.0124 0
      vertex -38.2768 30.1443 -1
      vertex -38.2768 30.1443 0
    endloop
  endfacet
  facet normal -0.78914 -0.614213 0
    outer loop
      vertex -38.2768 30.1443 -1
      vertex -37.0637 28.5857 -1
      vertex -38.2768 30.1443 0
    endloop
  endfacet
  facet normal -0.78914 -0.614213 0
    outer loop
      vertex -38.2768 30.1443 0
      vertex -37.0637 28.5857 -1
      vertex -37.0637 28.5857 0
    endloop
  endfacet
  facet normal -0.546949 -0.837166 0
    outer loop
      vertex -37.0637 28.5857 0
      vertex -37.0637 28.5857 -1
      vertex -35.4102 27.5054 -1
    endloop
  endfacet
  facet normal -0.546949 -0.837166 0
    outer loop
      vertex -35.4102 27.5054 0
      vertex -37.0637 28.5857 0
      vertex -35.4102 27.5054 -1
    endloop
  endfacet
  facet normal -0.245485 -0.9694 0
    outer loop
      vertex -35.4102 27.5054 0
      vertex -35.4102 27.5054 -1
      vertex -33.4955 27.0205 -1
    endloop
  endfacet
  facet normal -0.245485 -0.9694 0
    outer loop
      vertex -33.4955 27.0205 0
      vertex -35.4102 27.5054 0
      vertex -33.4955 27.0205 -1
    endloop
  endfacet
  facet normal 0.0825792 -0.996585 0
    outer loop
      vertex -33.4955 27.0205 0
      vertex -33.4955 27.0205 -1
      vertex -32 27.1444 -1
    endloop
  endfacet
  facet normal 0.0825792 -0.996585 0
    outer loop
      vertex -32 27.1444 0
      vertex -33.4955 27.0205 0
      vertex -32 27.1444 -1
    endloop
  endfacet
  facet normal -1 0 0
    outer loop
      vertex -32 -32 0
      vertex -32 -32 1
      vertex -32 -27.1444 0
    endloop
  endfacet
  facet normal -1 0 0
    outer loop
      vertex -32 -27.1444 0
      vertex -32 -32 1
      vertex -32 32 1
    endloop
  endfacet
  facet normal -1 0 0
    outer loop
      vertex -32 27.1444 0
      vertex -32 32 1
      vertex -32 32 0
    endloop
  endfacet
  facet normal -1 0 0
    outer loop
      vertex -32 -27.1444 0
      vertex -32 32 1
      vertex -32 27.1444 0
    endloop
  endfacet
  facet normal -1 0 0
    outer loop
      vertex -32 27.1444 0
      vertex -32 27.1444 -1
      vertex -32 -27.1444 0
    endloop
  endfacet
  facet normal -1 0 0
    outer loop
      vertex -32 -27.1444 0
      vertex -32 27.1444 -1
      vertex -32 -27.1444 -1
    endloop
  endfacet
  facet normal 0.0825792 0.996585 0
    outer loop
      vertex -33.4955 -27.0205 -1
      vertex -33.4955 -27.0205 0
      vertex -32 -27.1444 -1
    endloop
  endfacet
  facet normal 0.0825792 0.996585 0
    outer loop
      vertex -32 -27.1444 -1
      vertex -33.4955 -27.0205 0
      vertex -32 -27.1444 0
    endloop
  endfacet
  facet normal -0.245485 0.9694 0
    outer loop
      vertex -35.4102 -27.5054 -1
      vertex -35.4102 -27.5054 0
      vertex -33.4955 -27.0205 -1
    endloop
  endfacet
  facet normal -0.245485 0.9694 0
    outer loop
      vertex -33.4955 -27.0205 -1
      vertex -35.4102 -27.5054 0
      vertex -33.4955 -27.0205 0
    endloop
  endfacet
  facet normal -0.546949 0.837166 0
    outer loop
      vertex -37.0637 -28.5857 -1
      vertex -37.0637 -28.5857 0
      vertex -35.4102 -27.5054 -1
    endloop
  endfacet
  facet normal -0.546949 0.837166 0
    outer loop
      vertex -35.4102 -27.5054 -1
      vertex -37.0637 -28.5857 0
      vertex -35.4102 -27.5054 0
    endloop
  endfacet
  facet normal -0.78914 0.614213 0
    outer loop
      vertex -38.2768 -30.1443 -1
      vertex -38.2768 -30.1443 0
      vertex -37.0637 -28.5857 -1
    endloop
  endfacet
  facet normal -0.78914 0.614213 0
    outer loop
      vertex -37.0637 -28.5857 -1
      vertex -38.2768 -30.1443 0
      vertex -37.0637 -28.5857 0
    endloop
  endfacet
  facet normal -0.945817 0.324699 0
    outer loop
      vertex -38.9182 -32.0124 -1
      vertex -38.9182 -32.0124 0
      vertex -38.2768 -30.1443 -1
    endloop
  endfacet
  facet normal -0.945817 0.324699 0
    outer loop
      vertex -38.2768 -30.1443 -1
      vertex -38.9182 -32.0124 0
      vertex -38.2768 -30.1443 0
    endloop
  endfacet
  facet normal 0 0 1
    outer loop
      vertex -38.9182 -32.0124 0
      vertex -38.9182 -33.9876 0
      vertex -38.2768 -35.8557 0
    endloop
  endfacet
  facet normal 0 0 1
    outer loop
      vertex -35.4102 -38.4946 0
      vertex -38.9182 -32.0124 0
      vertex -37.0637 -37.4143 0
    endloop
  endfacet
  facet normal 0 0 1
    outer loop
      vertex -37.0637 -37.4143 0
      vertex -38.9182 -32.0124 0
      vertex -38.2768 -35.8557 0
    endloop
  endfacet
  facet normal 0 0 1
    outer loop
      vertex -33.4955 -38.9795 0
      vertex -38.9182 -32.0124 0
      vertex -35.4102 -38.4946 0
    endloop
  endfacet
  facet normal 0 0 1
    outer loop
      vertex -31.5271 -38.8164 0
      vertex -38.9182 -32.0124 0
      vertex -33.4955 -38.9795 0
    endloop
  endfacet
  facet normal 0 0 1
    outer loop
      vertex -29.7183 -38.023 0
      vertex -38.9182 -32.0124 0
      vertex -31.5271 -38.8164 0
    endloop
  endfacet
  facet normal 0 0 1
    outer loop
      vertex -28.2652 -36.6853 0
      vertex -38.9182 -32.0124 0
      vertex -29.7183 -38.023 0
    endloop
  endfacet
  facet normal 0 0 1
    outer loop
      vertex -27.3251 -34.9482 0
      vertex -38.9182 -32.0124 0
      vertex -28.2652 -36.6853 0
    endloop
  endfacet
  facet normal 0 0 1
    outer loop
      vertex -27 -33 0
      vertex -38.9182 -32.0124 0
      vertex -27.3251 -34.9482 0
    endloop
  endfacet
  facet normal 0 0 1
    outer loop
      vertex -27.1669 -32 0
      vertex -38.9182 -32.0124 0
      vertex -27 -33 0
    endloop
  endfacet
  facet normal 0 0 1
    outer loop
      vertex -32 -32 0
      vertex -38.9182 -32.0124 0
      vertex -27.1669 -32 0
    endloop
  endfacet
  facet normal 0 0 1
    outer loop
      vertex -32 -27.1444 0
      vertex -38.9182 -32.0124 0
      vertex -32 -32 0
    endloop
  endfacet
  facet normal 0 0 1
    outer loop
      vertex -33.4955 -27.0205 0
      vertex -38.9182 -32.0124 0
      vertex -32 -27.1444 0
    endloop
  endfacet
  facet normal 0 0 1
    outer loop
      vertex -35.4102 -27.5054 0
      vertex -38.9182 -32.0124 0
      vertex -33.4955 -27.0205 0
    endloop
  endfacet
  facet normal 0 0 1
    outer loop
      vertex -37.0637 -28.5857 0
      vertex -38.9182 -32.0124 0
      vertex -35.4102 -27.5054 0
    endloop
  endfacet
  facet normal 0 0 1
    outer loop
      vertex -38.2768 -30.1443 0
      vertex -38.9182 -32.0124 0
      vertex -37.0637 -28.5857 0
    endloop
  endfacet
  facet normal 0 0 1
    outer loop
      vertex -30 -30 1
      vertex -32 -32 1
      vertex 32 -32 1
    endloop
  endfacet
  facet normal 0 0 1
    outer loop
      vertex -30 30 1
      vertex -32 32 1
      vertex -30 -30 1
    endloop
  endfacet
  facet normal 0 0 1
    outer loop
      vertex 30 -30 1
      vertex -30 -30 1
      vertex 32 -32 1
    endloop
  endfacet
  facet normal 0 0 1
    outer loop
      vertex -32 32 1
      vertex -32 -32 1
      vertex -30 -30 1
    endloop
  endfacet
  facet normal 0 0 1
    outer loop
      vertex 32 32 1
      vertex -32 32 1
      vertex -30 30 1
    endloop
  endfacet
  facet normal 0 0 1
    outer loop
      vertex 32 32 1
      vertex 30 30 1
      vertex 32 -32 1
    endloop
  endfacet
  facet normal 0 0 1
    outer loop
      vertex 32 32 1
      vertex -30 30 1
      vertex 30 30 1
    endloop
  endfacet
  facet normal 0 0 1
    outer loop
      vertex 30 30 1
      vertex 30 -30 1
      vertex 32 -32 1
    endloop
  endfacet
  facet normal 0 0 1
    outer loop
      vertex 27.0818 -32.0124 0
      vertex 27.0818 -33.9876 0
      vertex 27.7232 -35.8557 0
    endloop
  endfacet
  facet normal 0 0 1
    outer loop
      vertex 30.5898 -38.4946 0
      vertex 27.0818 -32.0124 0
      vertex 28.9363 -37.4143 0
    endloop
  endfacet
  facet normal 0 0 1
    outer loop
      vertex 28.9363 -37.4143 0
      vertex 27.0818 -32.0124 0
      vertex 27.7232 -35.8557 0
    endloop
  endfacet
  facet normal 0 0 1
    outer loop
      vertex 32.5045 -38.9795 0
      vertex 27.0818 -32.0124 0
      vertex 30.5898 -38.4946 0
    endloop
  endfacet
  facet normal 0 0 1
    outer loop
      vertex 34.4729 -38.8164 0
      vertex 27.0818 -32.0124 0
      vertex 32.5045 -38.9795 0
    endloop
  endfacet
  facet normal 0 0 1
    outer loop
      vertex 36.2817 -38.023 0
      vertex 27.0818 -32.0124 0
      vertex 34.4729 -38.8164 0
    endloop
  endfacet
  facet normal 0 0 1
    outer loop
      vertex 37.7348 -36.6853 0
      vertex 27.0818 -32.0124 0
      vertex 36.2817 -38.023 0
    endloop
  endfacet
  facet normal 0 0 1
    outer loop
      vertex 38.6749 -34.9482 0
      vertex 27.0818 -32.0124 0
      vertex 37.7348 -36.6853 0
    endloop
  endfacet
  facet normal 0 0 1
    outer loop
      vertex 39 -33 0
      vertex 27.0818 -32.0124 0
      vertex 38.6749 -34.9482 0
    endloop
  endfacet
  facet normal 0 0 1
    outer loop
      vertex 32 -32 0
      vertex 27.0818 -32.0124 0
      vertex 39 -33 0
    endloop
  endfacet
  facet normal 0 0 1
    outer loop
      vertex 32 -32 0
      vertex 27.0861 -32 0
      vertex 27.0818 -32.0124 0
    endloop
  endfacet
  facet normal 0 0 1
    outer loop
      vertex 38.6749 -31.0518 0
      vertex 32 -32 0
      vertex 39 -33 0
    endloop
  endfacet
  facet normal 0 0 1
    outer loop
      vertex 32 -27.1483 0
      vertex 34.4729 -27.1836 0
      vertex 32.5045 -27.0205 0
    endloop
  endfacet
  facet normal 0 0 1
    outer loop
      vertex 32 -27.1483 0
      vertex 36.2817 -27.977 0
      vertex 34.4729 -27.1836 0
    endloop
  endfacet
  facet normal 0 0 1
    outer loop
      vertex 32 -27.1483 0
      vertex 37.7348 -29.3147 0
      vertex 36.2817 -27.977 0
    endloop
  endfacet
  facet normal 0 0 1
    outer loop
      vertex 32 -27.1483 0
      vertex 38.6749 -31.0518 0
      vertex 37.7348 -29.3147 0
    endloop
  endfacet
  facet normal 0 0 1
    outer loop
      vertex 32 -27.1483 0
      vertex 32 -32 0
      vertex 38.6749 -31.0518 0
    endloop
  endfacet
  facet normal 0 0 1
    outer loop
      vertex 27.0818 33.9876 0
      vertex 27.0818 32.0124 0
      vertex 27.0861 32 0
    endloop
  endfacet
  facet normal 0 0 1
    outer loop
      vertex 38.6749 31.0518 0
      vertex 27.0818 33.9876 0
      vertex 32 32 0
    endloop
  endfacet
  facet normal 0 0 1
    outer loop
      vertex 32 32 0
      vertex 27.0818 33.9876 0
      vertex 27.0861 32 0
    endloop
  endfacet
  facet normal 0 0 1
    outer loop
      vertex 32.5045 27.0205 0
      vertex 32 32 0
      vertex 32 27.1483 0
    endloop
  endfacet
  facet normal 0 0 1
    outer loop
      vertex 34.4729 27.1836 0
      vertex 32 32 0
      vertex 32.5045 27.0205 0
    endloop
  endfacet
  facet normal 0 0 1
    outer loop
      vertex 36.2817 27.977 0
      vertex 32 32 0
      vertex 34.4729 27.1836 0
    endloop
  endfacet
  facet normal 0 0 1
    outer loop
      vertex 37.7348 29.3147 0
      vertex 32 32 0
      vertex 36.2817 27.977 0
    endloop
  endfacet
  facet normal 0 0 1
    outer loop
      vertex 38.6749 31.0518 0
      vertex 32 32 0
      vertex 37.7348 29.3147 0
    endloop
  endfacet
  facet normal 0 0 1
    outer loop
      vertex 39 33 0
      vertex 27.0818 33.9876 0
      vertex 38.6749 31.0518 0
    endloop
  endfacet
  facet normal 0 0 1
    outer loop
      vertex 38.6749 34.9482 0
      vertex 27.0818 33.9876 0
      vertex 39 33 0
    endloop
  endfacet
  facet normal 0 0 1
    outer loop
      vertex 37.7348 36.6853 0
      vertex 27.0818 33.9876 0
      vertex 38.6749 34.9482 0
    endloop
  endfacet
  facet normal 0 0 1
    outer loop
      vertex 36.2817 38.023 0
      vertex 27.0818 33.9876 0
      vertex 37.7348 36.6853 0
    endloop
  endfacet
  facet normal 0 0 1
    outer loop
      vertex 34.4729 38.8164 0
      vertex 27.0818 33.9876 0
      vertex 36.2817 38.023 0
    endloop
  endfacet
  facet normal 0 0 1
    outer loop
      vertex 32.5045 38.9795 0
      vertex 27.0818 33.9876 0
      vertex 34.4729 38.8164 0
    endloop
  endfacet
  facet normal 0 0 1
    outer loop
      vertex 30.5898 38.4946 0
      vertex 27.0818 33.9876 0
      vertex 32.5045 38.9795 0
    endloop
  endfacet
  facet normal 0 0 1
    outer loop
      vertex 28.9363 37.4143 0
      vertex 27.0818 33.9876 0
      vertex 30.5898 38.4946 0
    endloop
  endfacet
  facet normal 0 0 1
    outer loop
      vertex 27.7232 35.8557 0
      vertex 27.0818 33.9876 0
      vertex 28.9363 37.4143 0
    endloop
  endfacet
  facet normal 0 0 1
    outer loop
      vertex -38.9182 33.9876 0
      vertex -38.9182 32.0124 0
      vertex -38.2768 30.1443 0
    endloop
  endfacet
  facet normal 0 0 1
    outer loop
      vertex -35.4102 27.5054 0
      vertex -38.9182 33.9876 0
      vertex -37.0637 28.5857 0
    endloop
  endfacet
  facet normal 0 0 1
    outer loop
      vertex -37.0637 28.5857 0
      vertex -38.9182 33.9876 0
      vertex -38.2768 30.1443 0
    endloop
  endfacet
  facet normal 0 0 1
    outer loop
      vertex -33.4955 27.0205 0
      vertex -38.9182 33.9876 0
      vertex -35.4102 27.5054 0
    endloop
  endfacet
  facet normal 0 0 1
    outer loop
      vertex -32 27.1444 0
      vertex -38.9182 33.9876 0
      vertex -33.4955 27.0205 0
    endloop
  endfacet
  facet normal 0 0 1
    outer loop
      vertex -32 32 0
      vertex -38.9182 33.9876 0
      vertex -32 27.1444 0
    endloop
  endfacet
  facet normal 0 0 1
    outer loop
      vertex -27.1669 32 0
      vertex -38.9182 33.9876 0
      vertex -32 32 0
    endloop
  endfacet
  facet normal 0 0 1
    outer loop
      vertex -27 33 0
      vertex -38.9182 33.9876 0
      vertex -27.1669 32 0
    endloop
  endfacet
  facet normal 0 0 1
    outer loop
      vertex -27.3251 34.9482 0
      vertex -38.9182 33.9876 0
      vertex -27 33 0
    endloop
  endfacet
  facet normal 0 0 1
    outer loop
      vertex -28.2652 36.6853 0
      vertex -38.9182 33.9876 0
      vertex -27.3251 34.9482 0
    endloop
  endfacet
  facet normal 0 0 1
    outer loop
      vertex -29.7183 38.023 0
      vertex -38.9182 33.9876 0
      vertex -28.2652 36.6853 0
    endloop
  endfacet
  facet normal 0 0 1
    outer loop
      vertex -31.5271 38.8164 0
      vertex -38.9182 33.9876 0
      vertex -29.7183 38.023 0
    endloop
  endfacet
  facet normal 0 0 1
    outer loop
      vertex -33.4955 38.9795 0
      vertex -38.9182 33.9876 0
      vertex -31.5271 38.8164 0
    endloop
  endfacet
  facet normal 0 0 1
    outer loop
      vertex -35.4102 38.4946 0
      vertex -38.9182 33.9876 0
      vertex -33.4955 38.9795 0
    endloop
  endfacet
  facet normal 0 0 1
    outer loop
      vertex -37.0637 37.4143 0
      vertex -38.9182 33.9876 0
      vertex -35.4102 38.4946 0
    endloop
  endfacet
  facet normal 0 0 1
    outer loop
      vertex -38.2768 35.8557 0
      vertex -38.9182 33.9876 0
      vertex -37.0637 37.4143 0
    endloop
  endfacet
  facet normal -1 0 0
    outer loop
      vertex -30 -30 1
      vertex -30 -30 5
      vertex -30 30 1
    endloop
  endfacet
  facet normal -1 0 0
    outer loop
      vertex -30 30 1
      vertex -30 -30 5
      vertex -30 30 5
    endloop
  endfacet
  facet normal 0 -1 0
    outer loop
      vertex -30 -30 5
      vertex -30 -30 1
      vertex 30 -30 1
    endloop
  endfacet
  facet normal 0 -1 0
    outer loop
      vertex 30 -30 5
      vertex -30 -30 5
      vertex 30 -30 1
    endloop
  endfacet
  facet normal 1 0 0
    outer loop
      vertex 30 -30 5
      vertex 30 -30 1
      vertex 30 30 1
    endloop
  endfacet
  facet normal 1 0 0
    outer loop
      vertex 30 30 5
      vertex 30 -30 5
      vertex 30 30 1
    endloop
  endfacet
  facet normal 0 1 0
    outer loop
      vertex -30 30 1
      vertex -30 30 5
      vertex 30 30 1
    endloop
  endfacet
  facet normal 0 1 0
    outer loop
      vertex 30 30 1
      vertex -30 30 5
      vertex 30 30 5
    endloop
  endfacet
  facet normal 0 0 1
    outer loop
      vertex -28 -28 5
      vertex -30 -30 5
      vertex 30 -30 5
    endloop
  endfacet
  facet normal 0 0 1
    outer loop
      vertex -28 28 5
      vertex -30 30 5
      vertex -28 -28 5
    endloop
  endfacet
  facet normal 0 0 1
    outer loop
      vertex 28 -28 5
      vertex -28 -28 5
      vertex 30 -30 5
    endloop
  endfacet
  facet normal 0 0 1
    outer loop
      vertex -30 30 5
      vertex -30 -30 5
      vertex -28 -28 5
    endloop
  endfacet
  facet normal 0 0 1
    outer loop
      vertex 30 30 5
      vertex -30 30 5
      vertex -28 28 5
    endloop
  endfacet
  facet normal 0 0 1
    outer loop
      vertex 30 30 5
      vertex 28 28 5
      vertex 30 -30 5
    endloop
  endfacet
  facet normal 0 0 1
    outer loop
      vertex 30 30 5
      vertex -28 28 5
      vertex 28 28 5
    endloop
  endfacet
  facet normal 0 0 1
    outer loop
      vertex 28 28 5
      vertex 28 -28 5
      vertex 30 -30 5
    endloop
  endfacet
  facet normal 1 0 0
    outer loop
      vertex -28 28 1
      vertex -28 28 5
      vertex -28 -28 5
    endloop
  endfacet
  facet normal 1 0 0
    outer loop
      vertex -28 -28 1
      vertex -28 28 1
      vertex -28 -28 5
    endloop
  endfacet
  facet normal 0 1 0
    outer loop
      vertex 28 -28 5
      vertex 28 -28 1
      vertex -28 -28 5
    endloop
  endfacet
  facet normal 0 1 0
    outer loop
      vertex -28 -28 5
      vertex 28 -28 1
      vertex -28 -28 1
    endloop
  endfacet
  facet normal -1 0 0
    outer loop
      vertex 28 28 5
      vertex 28 28 1
      vertex 28 -28 5
    endloop
  endfacet
  facet normal -1 0 0
    outer loop
      vertex 28 -28 5
      vertex 28 28 1
      vertex 28 -28 1
    endloop
  endfacet
  facet normal 0 -1 0
    outer loop
      vertex 28 28 1
      vertex 28 28 5
      vertex -28 28 5
    endloop
  endfacet
  facet normal 0 -1 0
    outer loop
      vertex -28 28 1
      vertex 28 28 1
      vertex -28 28 5
    endloop
  endfacet
  facet normal 0 0 1
    outer loop
      vertex -28 28 1
      vertex -28 -28 1
      vertex 28 -28 1
    endloop
  endfacet
  facet normal 0 0 1
    outer loop
      vertex 28 28 1
      vertex -28 28 1
      vertex 28 -28 1
    endloop
  endfacet
endsolid OpenSCAD_Model
